{
  "accessors": [
    {
      "bufferView": 0,
      "componentType": 5126,
      "count": 4960,
      "max": [
        10.923851013183594,
        41.937461853027344,
        10.92387866973877
      ],
      "min": [
        -10.923908233642578,
        -0.36292457580566406,
        -10.923881530761719
      ],
      "name": "ta/POSITION",
      "type": "VEC3"
    },
    {
      "bufferView": 0,
      "byteOffset": 12,
      "componentType": 5126,
      "count": 4960,
      "name": "ta/NORMAL",
      "type": "VEC3"
    },
    {
      "bufferView": 0,
      "byteOffset": 24,
      "componentType": 5126,
      "count": 4960,
      "name": "ta/TEXCOORD_0",
      "type": "VEC2"
    },
    {
      "bufferView": 1,
      "componentType": 5123,
      "count": 7476,
      "name": "ta/INDICES",
      "type": "SCALAR"
    }
  ],
  "asset": {
    "copyright": "Copyright (c) 2018-2020 Chukong Technologies Inc.",
    "generator": "FBX-glTF-conv",
    "version": "2.0"
  },
  "bufferViews": [
    {
      "buffer": 0,
      "byteLength": 158720,
      "byteStride": 32,
      "name": "ta",
      "target": 34962
    },
    {
      "buffer": 0,
      "byteLength": 14952,
      "byteOffset": 158720,
      "target": 34963
    }
  ],
  "buffers": [
    {
      "byteLength": 173672,
      "uri": "out.bin"
    }
  ],
  "extras": {
    "FBX-glTF-conv": {
      "animationFrameRate": 25.0,
      "fbxFileHeaderInfo": {
        "creationTimeStamp": {
          "day": 26,
          "hour": 16,
          "millisecond": 415,
          "minute": 16,
          "month": 3,
          "second": 25,
          "year": 2025
        },
        "creator": "Blender (stable FBX IO) - 4.4.0 - 5.12.7",
        "sceneInfo": {
          "author": "",
          "comment": "",
          "keywords": "",
          "original": {
            "applicationName": "Blender (stable FBX IO)",
            "applicationVendor": "Blender Foundation",
            "applicationVersion": "4.4.0",
            "fileName": "/foobar.fbx"
          },
          "revision": "",
          "subject": "",
          "title": "",
          "url": "E:\\CocosCreator\\StormSunder_Github\\StormSunder\\assets\\module_storm_sunder\\FBX\\Model\\House\\ta.fbx"
        }
      }
    }
  },
  "meshes": [
    {
      "name": "ta",
      "primitives": [
        {
          "attributes": {
            "NORMAL": 1,
            "POSITION": 0,
            "TEXCOORD_0": 2
          },
          "indices": 3
        }
      ]
    }
  ],
  "nodes": [
    {
      "mesh": 0,
      "name": "ta",
      "rotation": [
        6.123234262925839e-17,
        1.0,
        6.123234262925839e-17,
        3.7493993930529855e-33
      ]
    }
  ],
  "scenes": [
    {
      "name": "Scene",
      "nodes": [
        0
      ]
    }
  ]
}