{
    "asset": {
        "generator": "FBX2glTF v0.9.7",
        "version": "2.0"
    },
    "scene": 0,
    "buffers": [
        {
            "byteLength": 59712,
            "uri": "buffer.bin"
        }
    ],
    "bufferViews": [
        {
            "buffer": 0,
            "byteLength": 400,
            "byteOffset": 0
        },
        {
            "buffer": 0,
            "byteLength": 1200,
            "byteOffset": 400
        },
        {
            "buffer": 0,
            "byteLength": 1600,
            "byteOffset": 1600
        },
        {
            "buffer": 0,
            "byteLength": 1200,
            "byteOffset": 3200
        },
        {
            "buffer": 0,
            "byteLength": 1600,
            "byteOffset": 4400
        },
        {
            "buffer": 0,
            "byteLength": 1600,
            "byteOffset": 6000
        },
        {
            "buffer": 0,
            "byteLength": 1200,
            "byteOffset": 7600
        },
        {
            "buffer": 0,
            "byteLength": 1600,
            "byteOffset": 8800
        },
        {
            "buffer": 0,
            "byteLength": 1200,
            "byteOffset": 10400
        },
        {
            "buffer": 0,
            "byteLength": 1600,
            "byteOffset": 11600
        },
        {
            "buffer": 0,
            "byteLength": 1200,
            "byteOffset": 13200
        },
        {
            "buffer": 0,
            "byteLength": 1600,
            "byteOffset": 14400
        },
        {
            "buffer": 0,
            "byteLength": 1200,
            "byteOffset": 16000
        },
        {
            "buffer": 0,
            "byteLength": 1200,
            "byteOffset": 17200
        },
        {
            "buffer": 0,
            "byteLength": 1600,
            "byteOffset": 18400
        },
        {
            "buffer": 0,
            "byteLength": 1200,
            "byteOffset": 20000
        },
        {
            "buffer": 0,
            "byteLength": 2568,
            "byteOffset": 21200,
            "target": 34963
        },
        {
            "buffer": 0,
            "byteLength": 7620,
            "byteOffset": 23768,
            "target": 34962
        },
        {
            "buffer": 0,
            "byteLength": 7620,
            "byteOffset": 31388,
            "target": 34962
        },
        {
            "buffer": 0,
            "byteLength": 5080,
            "byteOffset": 39008,
            "target": 34962
        },
        {
            "buffer": 0,
            "byteLength": 5080,
            "byteOffset": 44088,
            "target": 34962
        },
        {
            "buffer": 0,
            "byteLength": 10160,
            "byteOffset": 49168,
            "target": 34962
        },
        {
            "buffer": 0,
            "byteLength": 384,
            "byteOffset": 59328
        }
    ],
    "scenes": [
        {
            "name": "Root Scene",
            "nodes": [
                0
            ]
        }
    ],
    "accessors": [
        {
            "componentType": 5126,
            "type": "SCALAR",
            "count": 100,
            "bufferView": 0,
            "byteOffset": 0,
            "min": [
                0.0
            ],
            "max": [
                4.125
            ]
        },
        {
            "componentType": 5126,
            "type": "VEC3",
            "count": 100,
            "bufferView": 1,
            "byteOffset": 0
        },
        {
            "componentType": 5126,
            "type": "VEC4",
            "count": 100,
            "bufferView": 2,
            "byteOffset": 0
        },
        {
            "componentType": 5126,
            "type": "VEC3",
            "count": 100,
            "bufferView": 3,
            "byteOffset": 0
        },
        {
            "componentType": 5126,
            "type": "VEC4",
            "count": 100,
            "bufferView": 4,
            "byteOffset": 0
        },
        {
            "componentType": 5126,
            "type": "VEC4",
            "count": 100,
            "bufferView": 5,
            "byteOffset": 0
        },
        {
            "componentType": 5126,
            "type": "VEC3",
            "count": 100,
            "bufferView": 6,
            "byteOffset": 0
        },
        {
            "componentType": 5126,
            "type": "VEC4",
            "count": 100,
            "bufferView": 7,
            "byteOffset": 0
        },
        {
            "componentType": 5126,
            "type": "VEC3",
            "count": 100,
            "bufferView": 8,
            "byteOffset": 0
        },
        {
            "componentType": 5126,
            "type": "VEC4",
            "count": 100,
            "bufferView": 9,
            "byteOffset": 0
        },
        {
            "componentType": 5126,
            "type": "VEC3",
            "count": 100,
            "bufferView": 10,
            "byteOffset": 0
        },
        {
            "componentType": 5126,
            "type": "VEC4",
            "count": 100,
            "bufferView": 11,
            "byteOffset": 0
        },
        {
            "componentType": 5126,
            "type": "VEC3",
            "count": 100,
            "bufferView": 12,
            "byteOffset": 0
        },
        {
            "componentType": 5126,
            "type": "VEC3",
            "count": 100,
            "bufferView": 13,
            "byteOffset": 0
        },
        {
            "componentType": 5126,
            "type": "VEC4",
            "count": 100,
            "bufferView": 14,
            "byteOffset": 0
        },
        {
            "componentType": 5126,
            "type": "VEC3",
            "count": 100,
            "bufferView": 15,
            "byteOffset": 0
        },
        {
            "componentType": 5123,
            "type": "SCALAR",
            "count": 1284,
            "bufferView": 16,
            "byteOffset": 0
        },
        {
            "componentType": 5126,
            "type": "VEC3",
            "count": 635,
            "bufferView": 17,
            "byteOffset": 0,
            "min": [
                -0.343297898769379,
                -0.336786329746246,
                -5.72204577053981e-08
            ],
            "max": [
                0.370354771614075,
                0.507761061191559,
                1.17155480384827
            ]
        },
        {
            "componentType": 5126,
            "type": "VEC3",
            "count": 635,
            "bufferView": 18,
            "byteOffset": 0
        },
        {
            "componentType": 5126,
            "type": "VEC2",
            "count": 635,
            "bufferView": 19,
            "byteOffset": 0
        },
        {
            "componentType": 5123,
            "type": "VEC4",
            "count": 635,
            "bufferView": 20,
            "byteOffset": 0
        },
        {
            "componentType": 5126,
            "type": "VEC4",
            "count": 635,
            "bufferView": 21,
            "byteOffset": 0
        },
        {
            "componentType": 5126,
            "type": "MAT4",
            "count": 6,
            "bufferView": 22,
            "byteOffset": 0
        }
    ],
    "images": [
        {
            "name": "javelin01.jpg",
            "uri": "javelin01.jpg"
        }
    ],
    "samplers": [
        {}
    ],
    "textures": [
        {
            "name": "贴图 #5",
            "sampler": 0,
            "source": 0
        }
    ],
    "materials": [
        {
            "name": "Material #6",
            "alphaMode": "OPAQUE",
            "extras": {
                "fromFBX": {
                    "shadingModel": "Phong",
                    "isTruePBR": false
                }
            },
            "pbrMetallicRoughness": {
                "baseColorTexture": {
                    "index": 0,
                    "texCoord": 0
                },
                "baseColorFactor": [
                    1.0,
                    1.0,
                    1.0,
                    1.0
                ],
                "metallicFactor": 0.400000005960464,
                "roughnessFactor": 0.30360022187233
            }
        }
    ],
    "meshes": [
        {
            "name": "javelin01",
            "primitives": [
                {
                    "material": 0,
                    "mode": 4,
                    "attributes": {
                        "JOINTS_0": 20,
                        "NORMAL": 18,
                        "POSITION": 17,
                        "TEXCOORD_0": 19,
                        "WEIGHTS_0": 21
                    },
                    "indices": 16
                }
            ]
        }
    ],
    "skins": [
        {
            "joints": [
                2,
                3,
                6,
                4,
                5,
                7
            ],
            "inverseBindMatrices": 22,
            "skeleton": 2
        }
    ],
    "animations": [
        {
            "name": "Take 001",
            "channels": [
                {
                    "sampler": 0,
                    "target": {
                        "node": 1,
                        "path": "translation"
                    }
                },
                {
                    "sampler": 1,
                    "target": {
                        "node": 1,
                        "path": "rotation"
                    }
                },
                {
                    "sampler": 2,
                    "target": {
                        "node": 2,
                        "path": "translation"
                    }
                },
                {
                    "sampler": 3,
                    "target": {
                        "node": 2,
                        "path": "rotation"
                    }
                },
                {
                    "sampler": 4,
                    "target": {
                        "node": 3,
                        "path": "rotation"
                    }
                },
                {
                    "sampler": 5,
                    "target": {
                        "node": 4,
                        "path": "translation"
                    }
                },
                {
                    "sampler": 6,
                    "target": {
                        "node": 4,
                        "path": "rotation"
                    }
                },
                {
                    "sampler": 7,
                    "target": {
                        "node": 5,
                        "path": "translation"
                    }
                },
                {
                    "sampler": 8,
                    "target": {
                        "node": 5,
                        "path": "rotation"
                    }
                },
                {
                    "sampler": 9,
                    "target": {
                        "node": 6,
                        "path": "translation"
                    }
                },
                {
                    "sampler": 10,
                    "target": {
                        "node": 6,
                        "path": "rotation"
                    }
                },
                {
                    "sampler": 11,
                    "target": {
                        "node": 6,
                        "path": "scale"
                    }
                },
                {
                    "sampler": 12,
                    "target": {
                        "node": 7,
                        "path": "translation"
                    }
                },
                {
                    "sampler": 13,
                    "target": {
                        "node": 7,
                        "path": "rotation"
                    }
                },
                {
                    "sampler": 14,
                    "target": {
                        "node": 7,
                        "path": "scale"
                    }
                }
            ],
            "samplers": [
                {
                    "input": 0,
                    "interpolation": "LINEAR",
                    "output": 1
                },
                {
                    "input": 0,
                    "interpolation": "LINEAR",
                    "output": 2
                },
                {
                    "input": 0,
                    "interpolation": "LINEAR",
                    "output": 3
                },
                {
                    "input": 0,
                    "interpolation": "LINEAR",
                    "output": 4
                },
                {
                    "input": 0,
                    "interpolation": "LINEAR",
                    "output": 5
                },
                {
                    "input": 0,
                    "interpolation": "LINEAR",
                    "output": 6
                },
                {
                    "input": 0,
                    "interpolation": "LINEAR",
                    "output": 7
                },
                {
                    "input": 0,
                    "interpolation": "LINEAR",
                    "output": 8
                },
                {
                    "input": 0,
                    "interpolation": "LINEAR",
                    "output": 9
                },
                {
                    "input": 0,
                    "interpolation": "LINEAR",
                    "output": 10
                },
                {
                    "input": 0,
                    "interpolation": "LINEAR",
                    "output": 11
                },
                {
                    "input": 0,
                    "interpolation": "LINEAR",
                    "output": 12
                },
                {
                    "input": 0,
                    "interpolation": "LINEAR",
                    "output": 13
                },
                {
                    "input": 0,
                    "interpolation": "LINEAR",
                    "output": 14
                },
                {
                    "input": 0,
                    "interpolation": "LINEAR",
                    "output": 15
                }
            ]
        }
    ],
    "nodes": [
        {
            "name": "RootNode",
            "translation": [
                0.0,
                0.0,
                0.0
            ],
            "rotation": [
                0.0,
                0.0,
                0.0,
                1.0
            ],
            "scale": [
                1.0,
                1.0,
                1.0
            ],
            "children": [
                1,
                8
            ]
        },
        {
            "name": "Dummy01",
            "translation": [
                0.0,
                4.31247441140831e-32,
                2.27106511374586e-09
            ],
            "rotation": [
                8.14603424714733e-08,
                0.0,
                0.0,
                1.0
            ],
            "scale": [
                2.53999996185303,
                2.53999996185303,
                2.53999996185303
            ],
            "children": [
                2,
                4,
                5,
                6,
                7
            ]
        },
        {
            "name": "Body",
            "translation": [
                -0.000466376630356535,
                0.0555356666445732,
                -4.76837147544984e-09
            ],
            "rotation": [
                1.31472529574239e-06,
                5.89831131492247e-07,
                0.703774869441986,
                0.710423111915588
            ],
            "scale": [
                0.256809949874878,
                0.439815044403076,
                0.0870304778218269
            ],
            "children": [
                3
            ]
        },
        {
            "name": "head",
            "translation": [
                0.931041061878204,
                -1.62124635494365e-07,
                1.28416282052513e-08
            ],
            "rotation": [
                -7.869318324083e-06,
                -2.02333453103165e-07,
                -0.00134088529739529,
                0.999999105930328
            ],
            "scale": [
                1.24272096157074,
                1.03568971157074,
                1.0696634054184
            ]
        },
        {
            "name": "legRight",
            "translation": [
                -0.15381583571434,
                0.0330642610788345,
                -4.76837147544984e-09
            ],
            "rotation": [
                0.677501499652863,
                0.200899600982666,
                0.678742349147797,
                -0.199849724769592
            ],
            "scale": [
                0.184104666113853,
                0.347824722528458,
                0.0710852295160294
            ]
        },
        {
            "name": "legLeft",
            "translation": [
                0.150058135390282,
                0.0330642610788345,
                -1.43051144263495e-08
            ],
            "rotation": [
                0.635664343833923,
                0.310663938522339,
                0.635291218757629,
                -0.309554189443588
            ],
            "scale": [
                0.184104397892952,
                0.347825288772583,
                0.0710852593183517
            ]
        },
        {
            "name": "handRight",
            "translation": [
                -0.204364582896233,
                0.230531245470047,
                -1.7527659323946e-08
            ],
            "rotation": [
                -0.00043949464452453,
                -2.82325254374882e-05,
                0.984926223754883,
                -0.172974288463593
            ],
            "scale": [
                0.184104412794113,
                0.347825288772583,
                0.07108523696661
            ]
        },
        {
            "name": "handLeft",
            "translation": [
                0.224248498678207,
                0.238905653357506,
                0.00736750662326813
            ],
            "rotation": [
                -0.261965572834015,
                -0.00381661276333034,
                -0.156682342290878,
                0.952265799045563
            ],
            "scale": [
                0.184104338288307,
                0.347825139760971,
                0.0710852667689323
            ]
        },
        {
            "name": "javelin01",
            "translation": [
                0.0,
                8.41086134073521e-09,
                0.0
            ],
            "rotation": [
                -0.70710676908493,
                -0.0,
                0.0,
                0.70710676908493
            ],
            "scale": [
                2.53999996185303,
                2.53999996185303,
                2.53999996185303
            ],
            "mesh": 0,
            "skin": 0
        }
    ]
}