{
  "accessors": [
    {
      "bufferView": 0,
      "componentType": 5126,
      "count": 260,
      "max": [
        0.7808187007904053,
        0.7475385069847107,
        0.32979926466941833
      ],
      "min": [
        -0.8579989075660706,
        -0.8078490495681763,
        -0.32687869668006897
      ],
      "name": "Storm/POSITION",
      "type": "VEC3"
    },
    {
      "bufferView": 0,
      "byteOffset": 12,
      "componentType": 5126,
      "count": 260,
      "name": "Storm/NORMAL",
      "type": "VEC3"
    },
    {
      "bufferView": 0,
      "byteOffset": 24,
      "componentType": 5126,
      "count": 260,
      "name": "Storm/TEXCOORD_0",
      "type": "VEC2"
    },
    {
      "bufferView": 1,
      "componentType": 5123,
      "count": 1152,
      "name": "Storm/INDICES",
      "type": "SCALAR"
    }
  ],
  "asset": {
    "copyright": "Copyright (c) 2018-2020 Chukong Technologies Inc.",
    "generator": "FBX-glTF-conv",
    "version": "2.0"
  },
  "bufferViews": [
    {
      "buffer": 0,
      "byteLength": 8320,
      "byteStride": 32,
      "name": "Storm",
      "target": 34962
    },
    {
      "buffer": 0,
      "byteLength": 2304,
      "byteOffset": 8320,
      "target": 34963
    }
  ],
  "buffers": [
    {
      "byteLength": 10624,
      "uri": "out.bin"
    }
  ],
  "extras": {
    "FBX-glTF-conv": {
      "animationFrameRate": 25.0,
      "fbxFileHeaderInfo": {
        "creationTimeStamp": {
          "day": 12,
          "hour": 10,
          "millisecond": 556,
          "minute": 39,
          "month": 3,
          "second": 23,
          "year": 2025
        },
        "creator": "Blender (stable FBX IO) - 4.3.0 - 5.12.5",
        "sceneInfo": {
          "author": "",
          "comment": "",
          "keywords": "",
          "original": {
            "applicationName": "Blender (stable FBX IO)",
            "applicationVendor": "Blender Foundation",
            "applicationVersion": "4.3.0",
            "fileName": "/foobar.fbx"
          },
          "revision": "",
          "subject": "",
          "title": "",
          "url": "E:\\CocosCreator\\StormSunder_Github\\StormSunder\\assets\\model_scene\\Storm\\Model\\storm1.fbx"
        }
      }
    }
  },
  "meshes": [
    {
      "name": "Storm",
      "primitives": [
        {
          "attributes": {
            "NORMAL": 1,
            "POSITION": 0,
            "TEXCOORD_0": 2
          },
          "indices": 3
        }
      ]
    }
  ],
  "nodes": [
    {
      "mesh": 0,
      "name": "Storm",
      "rotation": [
        6.123234262925839e-17,
        1.0,
        6.123234262925839e-17,
        3.7493993930529855e-33
      ],
      "scale": [
        1.0,
        1.0,
        1.726568341255188
      ]
    }
  ],
  "scenes": [
    {
      "name": "Scene",
      "nodes": [
        0
      ]
    }
  ]
}