{
  "accessors": [
    {
      "bufferView": 0,
      "componentType": 5126,
      "count": 338,
      "max": [
        0.49747419357299805,
        0.2386583387851715,
        0.4190499484539032
      ],
      "min": [
        -0.6180337071418762,
        -0.23335811495780945,
        -0.41510671377182007
      ],
      "name": "cheese/POSITION",
      "type": "VEC3"
    },
    {
      "bufferView": 0,
      "byteOffset": 12,
      "componentType": 5126,
      "count": 338,
      "name": "cheese/NORMAL",
      "type": "VEC3"
    },
    {
      "bufferView": 0,
      "byteOffset": 24,
      "componentType": 5126,
      "count": 338,
      "name": "cheese/TEXCOORD_0",
      "type": "VEC2"
    },
    {
      "bufferView": 1,
      "componentType": 5123,
      "count": 1254,
      "name": "cheese/INDICES",
      "type": "SCALAR"
    }
  ],
  "asset": {
    "copyright": "Copyright (c) 2018-2020 Chukong Technologies Inc.",
    "generator": "FBX-glTF-conv",
    "version": "2.0"
  },
  "bufferViews": [
    {
      "buffer": 0,
      "byteLength": 10816,
      "byteStride": 32,
      "name": "cheese",
      "target": 34962
    },
    {
      "buffer": 0,
      "byteLength": 2508,
      "byteOffset": 10816,
      "target": 34963
    }
  ],
  "buffers": [
    {
      "byteLength": 13324,
      "uri": "out.bin"
    }
  ],
  "extras": {
    "FBX-glTF-conv": {
      "animationFrameRate": 24.0,
      "fbxFileHeaderInfo": {
        "creationTimeStamp": {
          "day": 14,
          "hour": 11,
          "millisecond": 9,
          "minute": 43,
          "month": 11,
          "second": 47,
          "year": 2024
        },
        "creator": "Blender (stable FBX IO) - 4.0.1 - 5.8.12",
        "sceneInfo": {
          "author": "",
          "comment": "",
          "keywords": "",
          "original": {
            "applicationName": "Blender (stable FBX IO)",
            "applicationVendor": "Blender Foundation",
            "applicationVersion": "4.0.1",
            "fileName": "/foobar.fbx"
          },
          "revision": "",
          "subject": "",
          "title": "",
          "url": "E:\\CocosCreator\\StormSunder_Github\\StormSunder\\assets\\module_storm_sunder\\FBX\\Food\\cheese.fbx"
        }
      }
    }
  },
  "meshes": [
    {
      "name": "cheese",
      "primitives": [
        {
          "attributes": {
            "NORMAL": 1,
            "POSITION": 0,
            "TEXCOORD_0": 2
          },
          "indices": 3
        }
      ]
    }
  ],
  "nodes": [
    {
      "mesh": 0,
      "name": "cheese"
    }
  ],
  "scenes": [
    {
      "name": "Scene",
      "nodes": [
        0
      ]
    }
  ]
}