{
  "accessors": [
    {
      "bufferView": 0,
      "componentType": 5126,
      "count": 509,
      "max": [
        0.0052780332043766975,
        0.0050166016444563866,
        0.002131022745743394
      ],
      "min": [
        -0.005269890651106834,
        -0.0050201863050460815,
        -0.0018011444481089711
      ],
      "name": "circle.006/POSITION",
      "type": "VEC3"
    },
    {
      "bufferView": 0,
      "byteOffset": 12,
      "componentType": 5126,
      "count": 509,
      "name": "circle.006/NORMAL",
      "type": "VEC3"
    },
    {
      "bufferView": 0,
      "byteOffset": 24,
      "componentType": 5126,
      "count": 509,
      "name": "circle.006/TEXCOORD_0",
      "type": "VEC2"
    },
    {
      "bufferView": 0,
      "byteOffset": 32,
      "componentType": 5126,
      "count": 509,
      "name": "circle.006/TEXCOORD_1",
      "type": "VEC2"
    },
    {
      "bufferView": 1,
      "componentType": 5123,
      "count": 1275,
      "name": "circle.006/INDICES",
      "type": "SCALAR"
    }
  ],
  "asset": {
    "copyright": "Copyright (c) 2018-2020 Chukong Technologies Inc.",
    "generator": "FBX-glTF-conv",
    "version": "2.0"
  },
  "bufferViews": [
    {
      "buffer": 0,
      "byteLength": 20360,
      "byteStride": 40,
      "name": "circle.006",
      "target": 34962
    },
    {
      "buffer": 0,
      "byteLength": 2550,
      "byteOffset": 20360,
      "target": 34963
    }
  ],
  "buffers": [
    {
      "byteLength": 22910,
      "uri": "out.bin"
    }
  ],
  "extras": {
    "FBX-glTF-conv": {
      "animationFrameRate": 24.0,
      "fbxFileHeaderInfo": {
        "creationTimeStamp": {
          "day": 12,
          "hour": 15,
          "millisecond": 234,
          "minute": 53,
          "month": 11,
          "second": 32,
          "year": 2024
        },
        "creator": "Blender (stable FBX IO) - 4.0.1 - 5.8.12",
        "sceneInfo": {
          "author": "",
          "comment": "",
          "keywords": "",
          "original": {
            "applicationName": "Blender (stable FBX IO)",
            "applicationVendor": "Blender Foundation",
            "applicationVersion": "4.0.1",
            "fileName": "/foobar.fbx"
          },
          "revision": "",
          "subject": "",
          "title": "",
          "url": "E:\\CocosCreator\\StormSunder_Github\\StormSunder\\assets\\module_storm_sunder\\FBX\\Food\\cicle.fbx"
        }
      }
    }
  },
  "images": [
    {
      "extras": {
        "FBX-glTF-conv": {
          "fileName": "E:\\CocosCreator\\StormSunder_Github\\StormSunder\\assets\\module_storm_sunder\\FBX\\Food\\tex2.png",
          "relativeFileName": "tex2.png"
        }
      },
      "name": "base_color_texture",
      "uri": "tex2.png"
    }
  ],
  "materials": [
    {
      "extras": {
        "FBX-glTF-conv": {
          "raw": {
            "properties": {
              "ambient": {
                "value": [
                  0.05087608844041824,
                  0.05087608844041824,
                  0.05087608844041824
                ]
              },
              "ambientFactor": {
                "value": 0.0
              },
              "bump": {
                "value": [
                  0.0,
                  0.0,
                  0.0
                ]
              },
              "bumpFactor": {
                "value": 0.0
              },
              "diffuse": {
                "texture": {
                  "index": 0
                },
                "value": [
                  0.800000011920929,
                  0.800000011920929,
                  0.800000011920929
                ]
              },
              "diffuseFactor": {
                "value": 1.0
              },
              "displacementColor": {
                "value": [
                  0.0,
                  0.0,
                  0.0
                ]
              },
              "displacementFactor": {
                "value": 1.0
              },
              "emissive": {
                "value": [
                  1.0,
                  1.0,
                  1.0
                ]
              },
              "emissiveFactor": {
                "value": 0.0
              },
              "normalMap": {
                "value": [
                  0.0,
                  0.0,
                  0.0
                ]
              },
              "reflection": {
                "value": [
                  0.800000011920929,
                  0.800000011920929,
                  0.800000011920929
                ]
              },
              "reflectionFactor": {
                "value": 0.0
              },
              "shadingModel": "Phong",
              "shininess": {
                "value": 25.0
              },
              "specular": {
                "value": [
                  0.800000011920929,
                  0.800000011920929,
                  0.800000011920929
                ]
              },
              "specularFactor": {
                "value": 0.25
              },
              "transparencyFactor": {
                "value": 0.0
              },
              "transparentColor": {
                "value": [
                  0.0,
                  0.0,
                  0.0
                ]
              },
              "vectorDisplacementColor": {
                "value": [
                  0.0,
                  0.0,
                  0.0
                ]
              },
              "vectorDisplacementFactor": {
                "value": 1.0
              }
            },
            "type": "phong"
          }
        }
      },
      "name": "material"
    }
  ],
  "meshes": [
    {
      "name": "circle.006",
      "primitives": [
        {
          "attributes": {
            "NORMAL": 1,
            "POSITION": 0,
            "TEXCOORD_0": 2,
            "TEXCOORD_1": 3
          },
          "indices": 4,
          "material": 0
        }
      ]
    }
  ],
  "nodes": [
    {
      "mesh": 0,
      "name": "circle.006",
      "rotation": [
        -0.7071068286895752,
        0.0,
        0.0,
        0.7071067094802856
      ],
      "scale": [
        100.0,
        100.0,
        100.0
      ],
      "translation": [
        0.0,
        0.0006373424548655748,
        0.0
      ]
    }
  ],
  "samplers": [
    {}
  ],
  "scenes": [
    {
      "name": "Scene",
      "nodes": [
        0
      ]
    }
  ],
  "textures": [
    {
      "name": "base_color_texture",
      "sampler": 0,
      "source": 0
    }
  ]
}