{
  "accessors": [
    {
      "bufferView": 0,
      "componentType": 5126,
      "count": 911,
      "max": [
        1.439690113067627,
        6.276182174682617,
        2.2631752490997314
      ],
      "min": [
        -1.1072943210601807,
        -0.003228963352739811,
        -2.260115623474121
      ],
      "name": "Building06/POSITION",
      "type": "VEC3"
    },
    {
      "bufferView": 0,
      "byteOffset": 12,
      "componentType": 5126,
      "count": 911,
      "name": "Building06/NORMAL",
      "type": "VEC3"
    },
    {
      "bufferView": 0,
      "byteOffset": 24,
      "componentType": 5126,
      "count": 911,
      "name": "Building06/TEXCOORD_0",
      "type": "VEC2"
    },
    {
      "bufferView": 0,
      "byteOffset": 32,
      "componentType": 5126,
      "count": 911,
      "name": "Building06/TEXCOORD_1",
      "type": "VEC2"
    },
    {
      "bufferView": 1,
      "componentType": 5123,
      "count": 1290,
      "name": "Building06/INDICES",
      "type": "SCALAR"
    }
  ],
  "asset": {
    "copyright": "Copyright (c) 2018-2020 Chukong Technologies Inc.",
    "generator": "FBX-glTF-conv",
    "version": "2.0"
  },
  "bufferViews": [
    {
      "buffer": 0,
      "byteLength": 36440,
      "byteStride": 40,
      "name": "Building06",
      "target": 34962
    },
    {
      "buffer": 0,
      "byteLength": 2580,
      "byteOffset": 36440,
      "target": 34963
    }
  ],
  "buffers": [
    {
      "byteLength": 39020,
      "uri": "out.bin"
    }
  ],
  "extras": {
    "FBX-glTF-conv": {
      "animationFrameRate": 25.0,
      "fbxFileHeaderInfo": {
        "creationTimeStamp": {
          "day": 25,
          "hour": 16,
          "millisecond": 664,
          "minute": 35,
          "month": 3,
          "second": 39,
          "year": 2025
        },
        "creator": "Blender (stable FBX IO) - 4.4.0 - 5.12.7",
        "sceneInfo": {
          "author": "",
          "comment": "",
          "keywords": "",
          "original": {
            "applicationName": "Blender (stable FBX IO)",
            "applicationVendor": "Blender Foundation",
            "applicationVersion": "4.4.0",
            "fileName": "/foobar.fbx"
          },
          "revision": "",
          "subject": "",
          "title": "",
          "url": "E:\\CocosCreator\\StormSunder_Github\\StormSunder\\assets\\module_storm_sunder\\FBX\\Model\\House\\Build06.fbx"
        }
      }
    }
  },
  "meshes": [
    {
      "name": "Building06",
      "primitives": [
        {
          "attributes": {
            "NORMAL": 1,
            "POSITION": 0,
            "TEXCOORD_0": 2,
            "TEXCOORD_1": 3
          },
          "indices": 4
        }
      ]
    }
  ],
  "nodes": [
    {
      "mesh": 0,
      "name": "Building06",
      "rotation": [
        6.123234262925839e-17,
        1.0,
        6.123234262925839e-17,
        3.7493993930529855e-33
      ]
    }
  ],
  "scenes": [
    {
      "name": "Scene",
      "nodes": [
        0
      ]
    }
  ]
}