{
  "accessors": [
    {
      "bufferView": 0,
      "componentType": 5126,
      "count": 220,
      "max": [
        0.6341941952705383,
        0.4856751263141632,
        0.6852871775627136
      ],
      "min": [
        -0.6341941952705383,
        -0.27287083864212036,
        -0.5645442008972168
      ],
      "name": "chick/POSITION",
      "type": "VEC3"
    },
    {
      "bufferView": 0,
      "byteOffset": 12,
      "componentType": 5126,
      "count": 220,
      "name": "chick/NORMAL",
      "type": "VEC3"
    },
    {
      "bufferView": 0,
      "byteOffset": 24,
      "componentType": 5126,
      "count": 220,
      "name": "chick/TEXCOORD_0",
      "type": "VEC2"
    },
    {
      "bufferView": 1,
      "componentType": 5123,
      "count": 1212,
      "name": "chick/INDICES",
      "type": "SCALAR"
    }
  ],
  "asset": {
    "copyright": "Copyright (c) 2018-2020 Chukong Technologies Inc.",
    "generator": "FBX-glTF-conv",
    "version": "2.0"
  },
  "bufferViews": [
    {
      "buffer": 0,
      "byteLength": 7040,
      "byteStride": 32,
      "name": "chick",
      "target": 34962
    },
    {
      "buffer": 0,
      "byteLength": 2424,
      "byteOffset": 7040,
      "target": 34963
    }
  ],
  "buffers": [
    {
      "byteLength": 9464,
      "uri": "out.bin"
    }
  ],
  "extras": {
    "FBX-glTF-conv": {
      "animationFrameRate": 24.0,
      "fbxFileHeaderInfo": {
        "creationTimeStamp": {
          "day": 14,
          "hour": 11,
          "millisecond": 165,
          "minute": 43,
          "month": 11,
          "second": 8,
          "year": 2024
        },
        "creator": "Blender (stable FBX IO) - 4.0.1 - 5.8.12",
        "sceneInfo": {
          "author": "",
          "comment": "",
          "keywords": "",
          "original": {
            "applicationName": "Blender (stable FBX IO)",
            "applicationVendor": "Blender Foundation",
            "applicationVersion": "4.0.1",
            "fileName": "/foobar.fbx"
          },
          "revision": "",
          "subject": "",
          "title": "",
          "url": "E:\\CocosCreator\\StormSunder_Github\\StormSunder\\assets\\module_storm_sunder\\FBX\\Food\\chick.fbx"
        }
      }
    }
  },
  "meshes": [
    {
      "name": "chick",
      "primitives": [
        {
          "attributes": {
            "NORMAL": 1,
            "POSITION": 0,
            "TEXCOORD_0": 2
          },
          "indices": 3
        }
      ]
    }
  ],
  "nodes": [
    {
      "mesh": 0,
      "name": "chick"
    }
  ],
  "scenes": [
    {
      "name": "Scene",
      "nodes": [
        0
      ]
    }
  ]
}