{
  "accessors": [
    {
      "bufferView": 0,
      "componentType": 5126,
      "count": 113,
      "max": [
        0.2573906183242798,
        0.9895885586738586,
        0.2824804484844208
      ],
      "min": [
        -0.24303150177001953,
        -0.0015877187252044678,
        -0.29535719752311707
      ],
      "name": "colo/POSITION",
      "type": "VEC3"
    },
    {
      "bufferView": 0,
      "byteOffset": 12,
      "componentType": 5126,
      "count": 113,
      "name": "colo/NORMAL",
      "type": "VEC3"
    },
    {
      "bufferView": 0,
      "byteOffset": 24,
      "componentType": 5126,
      "count": 113,
      "name": "colo/TEXCOORD_0",
      "type": "VEC2"
    },
    {
      "bufferView": 1,
      "componentType": 5123,
      "count": 312,
      "name": "colo/INDICES",
      "type": "SCALAR"
    }
  ],
  "asset": {
    "copyright": "Copyright (c) 2018-2020 Chukong Technologies Inc.",
    "generator": "FBX-glTF-conv",
    "version": "2.0"
  },
  "bufferViews": [
    {
      "buffer": 0,
      "byteLength": 3616,
      "byteStride": 32,
      "name": "colo",
      "target": 34962
    },
    {
      "buffer": 0,
      "byteLength": 624,
      "byteOffset": 3616,
      "target": 34963
    }
  ],
  "buffers": [
    {
      "byteLength": 4240,
      "uri": "out.bin"
    }
  ],
  "extras": {
    "FBX-glTF-conv": {
      "animationFrameRate": 24.0,
      "fbxFileHeaderInfo": {
        "creationTimeStamp": {
          "day": 14,
          "hour": 11,
          "millisecond": 69,
          "minute": 41,
          "month": 11,
          "second": 27,
          "year": 2024
        },
        "creator": "Blender (stable FBX IO) - 4.0.1 - 5.8.12",
        "sceneInfo": {
          "author": "",
          "comment": "",
          "keywords": "",
          "original": {
            "applicationName": "Blender (stable FBX IO)",
            "applicationVendor": "Blender Foundation",
            "applicationVersion": "4.0.1",
            "fileName": "/foobar.fbx"
          },
          "revision": "",
          "subject": "",
          "title": "",
          "url": "E:\\CocosCreator\\StormSunder_Github\\StormSunder\\assets\\module_storm_sunder\\FBX\\Food\\colo.fbx"
        }
      }
    }
  },
  "meshes": [
    {
      "name": "colo",
      "primitives": [
        {
          "attributes": {
            "NORMAL": 1,
            "POSITION": 0,
            "TEXCOORD_0": 2
          },
          "indices": 3
        }
      ]
    }
  ],
  "nodes": [
    {
      "mesh": 0,
      "name": "colo"
    }
  ],
  "scenes": [
    {
      "name": "Scene",
      "nodes": [
        0
      ]
    }
  ]
}