{
  "accessors": [
    {
      "bufferView": 0,
      "componentType": 5126,
      "count": 402,
      "max": [
        0.45320671796798706,
        0.7167080640792847,
        0.9578396081924438
      ],
      "min": [
        -0.4910720884799957,
        0.0015317373909056187,
        -0.8960573077201843
      ],
      "name": "car2/POSITION",
      "type": "VEC3"
    },
    {
      "bufferView": 0,
      "byteOffset": 12,
      "componentType": 5126,
      "count": 402,
      "name": "car2/NORMAL",
      "type": "VEC3"
    },
    {
      "bufferView": 0,
      "byteOffset": 24,
      "componentType": 5126,
      "count": 402,
      "name": "car2/TEXCOORD_0",
      "type": "VEC2"
    },
    {
      "bufferView": 1,
      "componentType": 5123,
      "count": 777,
      "name": "car2/INDICES",
      "type": "SCALAR"
    }
  ],
  "asset": {
    "copyright": "Copyright (c) 2018-2020 Chukong Technologies Inc.",
    "generator": "FBX-glTF-conv",
    "version": "2.0"
  },
  "bufferViews": [
    {
      "buffer": 0,
      "byteLength": 12864,
      "byteStride": 32,
      "name": "car2",
      "target": 34962
    },
    {
      "buffer": 0,
      "byteLength": 1554,
      "byteOffset": 12864,
      "target": 34963
    }
  ],
  "buffers": [
    {
      "byteLength": 14418,
      "uri": "out.bin"
    }
  ],
  "extras": {
    "FBX-glTF-conv": {
      "animationFrameRate": 25.0,
      "fbxFileHeaderInfo": {
        "creationTimeStamp": {
          "day": 26,
          "hour": 9,
          "millisecond": 685,
          "minute": 25,
          "month": 3,
          "second": 25,
          "year": 2025
        },
        "creator": "Blender (stable FBX IO) - 4.4.0 - 5.12.7",
        "sceneInfo": {
          "author": "",
          "comment": "",
          "keywords": "",
          "original": {
            "applicationName": "Blender (stable FBX IO)",
            "applicationVendor": "Blender Foundation",
            "applicationVersion": "4.4.0",
            "fileName": "/foobar.fbx"
          },
          "revision": "",
          "subject": "",
          "title": "",
          "url": "E:\\CocosCreator\\StormSunder_Github\\StormSunder\\assets\\model_scene\\Model\\House\\car2.fbx"
        }
      }
    }
  },
  "meshes": [
    {
      "name": "car2",
      "primitives": [
        {
          "attributes": {
            "NORMAL": 1,
            "POSITION": 0,
            "TEXCOORD_0": 2
          },
          "indices": 3
        }
      ]
    }
  ],
  "nodes": [
    {
      "mesh": 0,
      "name": "car2",
      "rotation": [
        6.123234262925839e-17,
        1.0,
        6.123234262925839e-17,
        3.7493993930529855e-33
      ]
    }
  ],
  "scenes": [
    {
      "name": "Scene",
      "nodes": [
        0
      ]
    }
  ]
}