{
  "accessors": [
    {
      "bufferView": 0,
      "componentType": 5126,
      "count": 560,
      "max": [
        1.139506459236145,
        1.5534359216690063,
        1.1966930627822876
      ],
      "min": [
        -1.1529219150543213,
        -0.0004405786166898906,
        -1.155707597732544
      ],
      "name": "Building11/POSITION",
      "type": "VEC3"
    },
    {
      "bufferView": 0,
      "byteOffset": 12,
      "componentType": 5126,
      "count": 560,
      "name": "Building11/NORMAL",
      "type": "VEC3"
    },
    {
      "bufferView": 0,
      "byteOffset": 24,
      "componentType": 5126,
      "count": 560,
      "name": "Building11/TEXCOORD_0",
      "type": "VEC2"
    },
    {
      "bufferView": 1,
      "componentType": 5123,
      "count": 840,
      "name": "Building11/INDICES",
      "type": "SCALAR"
    }
  ],
  "asset": {
    "copyright": "Copyright (c) 2018-2020 Chukong Technologies Inc.",
    "generator": "FBX-glTF-conv",
    "version": "2.0"
  },
  "bufferViews": [
    {
      "buffer": 0,
      "byteLength": 17920,
      "byteStride": 32,
      "name": "Building11",
      "target": 34962
    },
    {
      "buffer": 0,
      "byteLength": 1680,
      "byteOffset": 17920,
      "target": 34963
    }
  ],
  "buffers": [
    {
      "byteLength": 19600,
      "uri": "out.bin"
    }
  ],
  "extras": {
    "FBX-glTF-conv": {
      "animationFrameRate": 25.0,
      "fbxFileHeaderInfo": {
        "creationTimeStamp": {
          "day": 26,
          "hour": 17,
          "millisecond": 684,
          "minute": 4,
          "month": 3,
          "second": 1,
          "year": 2025
        },
        "creator": "Blender (stable FBX IO) - 4.4.0 - 5.12.7",
        "sceneInfo": {
          "author": "",
          "comment": "",
          "keywords": "",
          "original": {
            "applicationName": "Blender (stable FBX IO)",
            "applicationVendor": "Blender Foundation",
            "applicationVersion": "4.4.0",
            "fileName": "/foobar.fbx"
          },
          "revision": "",
          "subject": "",
          "title": "",
          "url": "E:\\CocosCreator\\StormSunder_Github\\StormSunder\\assets\\module_storm_sunder\\FBX\\Model\\House\\Build11.fbx"
        }
      }
    }
  },
  "meshes": [
    {
      "name": "Building11",
      "primitives": [
        {
          "attributes": {
            "NORMAL": 1,
            "POSITION": 0,
            "TEXCOORD_0": 2
          },
          "indices": 3
        }
      ]
    }
  ],
  "nodes": [
    {
      "mesh": 0,
      "name": "Building11",
      "rotation": [
        6.123234262925839e-17,
        1.0,
        6.123234262925839e-17,
        3.7493993930529855e-33
      ]
    }
  ],
  "scenes": [
    {
      "name": "Scene",
      "nodes": [
        0
      ]
    }
  ]
}